<svg xmlns="http://www.w3.org/2000/svg" width="32.2" height="31.116" viewBox="0 0 32.2 31.116">
  <defs>
    <style>
      .cls-1 {
        fill: #341931;
        stroke: #341931;
      }
    </style>
  </defs>
  <path id="_ionicons_svg_ios-heart" class="cls-1" d="M70.8,56h-.075A8.534,8.534,0,0,0,63.6,59.9,8.534,8.534,0,0,0,56.475,56H56.4A8.479,8.479,0,0,0,48,64.475a18.256,18.256,0,0,0,3.585,9.953C56.1,80.6,63.6,86,63.6,86s7.5-5.4,12.015-11.572A18.256,18.256,0,0,0,79.2,64.475,8.479,8.479,0,0,0,70.8,56Z" transform="translate(-47.5 -55.5)"/>
</svg>
