<svg xmlns="http://www.w3.org/2000/svg" width="43" height="31" viewBox="0 0 43 31">
  <defs>
    <style>
      .cls-1 {
        fill: #341931;
        stroke: #707070;
      }
    </style>
  </defs>
  <g id="_ionicons_svg_ios-radio" transform="translate(-31.5 -95.5)">
    <path id="Path_315" data-name="Path 315" class="cls-1" d="M34.625,111a18.272,18.272,0,0,1,5.063-12.713,1.373,1.373,0,0,0-.037-1.9A1.294,1.294,0,0,0,38.741,96a1.314,1.314,0,0,0-.947.412,21.262,21.262,0,0,0-.009,29.166,1.293,1.293,0,0,0,.956.422,1.316,1.316,0,0,0,.909-.366,1.353,1.353,0,0,0,.412-.937,1.307,1.307,0,0,0-.375-.966A18.35,18.35,0,0,1,34.625,111ZM68.206,96.412A1.278,1.278,0,0,0,67.269,96a1.316,1.316,0,0,0-.909.366,1.353,1.353,0,0,0-.412.938,1.307,1.307,0,0,0,.375.966,18.516,18.516,0,0,1,0,25.444,1.371,1.371,0,0,0,.028,1.894,1.283,1.283,0,0,0,1.866-.056,21.226,21.226,0,0,0-.009-29.137Z"/>
    <path id="Path_316" data-name="Path 316" class="cls-1" d="M100.113,159.834a12.133,12.133,0,0,1,.141-17.184,1.315,1.315,0,0,0,.019-1.856,1.313,1.313,0,0,0-1.856-.019,14.781,14.781,0,0,0-.169,20.906,1.307,1.307,0,0,0,.928.394,1.27,1.27,0,0,0,.919-.394,1.3,1.3,0,0,0,.384-.919A1.208,1.208,0,0,0,100.113,159.834Zm19.856-19.05a1.274,1.274,0,0,0-.919-.375,1.343,1.343,0,0,0-.937.384,1.316,1.316,0,0,0,.009,1.856,11.852,11.852,0,0,1,3.628,8.578,12.274,12.274,0,0,1-3.478,8.606,1.313,1.313,0,0,0,.928,2.231,1.288,1.288,0,0,0,.928-.384,14.847,14.847,0,0,0,4.247-10.444A14.536,14.536,0,0,0,119.969,140.784Z" transform="translate(-56.188 -40.238)"/>
    <path id="Path_317" data-name="Path 317" class="cls-1" d="M161.244,179.594a1.3,1.3,0,0,0-.937-.394,1.261,1.261,0,0,0-.919.384,9.632,9.632,0,0,0-.122,13.631,1.312,1.312,0,0,0,.938.394,1.29,1.29,0,0,0,.919-.375,1.275,1.275,0,0,0,.394-.928,1.3,1.3,0,0,0-.384-.937,7.029,7.029,0,0,1,.094-9.928A1.321,1.321,0,0,0,161.244,179.594Zm11.119-.019a1.274,1.274,0,0,0-.919-.375,1.343,1.343,0,0,0-.937.384,1.316,1.316,0,0,0,.009,1.856,7.028,7.028,0,0,1,.084,9.938,1.273,1.273,0,0,0-.375.928,1.3,1.3,0,0,0,.384.919,1.315,1.315,0,0,0,.919.384,1.291,1.291,0,0,0,.928-.394,9.654,9.654,0,0,0-.094-13.641Zm-6.534,3.262a3.563,3.563,0,1,0,3.563,3.563A3.561,3.561,0,0,0,165.828,182.837Z" transform="translate(-112.828 -75.4)"/>
  </g>
</svg>
